<?xml version="1.0" standalone="no"?>
<!DOCTYPE svg PUBLIC "-//W3C//DTD SVG 20010904//EN"
 "http://www.w3.org/TR/2001/REC-SVG-20010904/DTD/svg10.dtd">
<svg version="1.0" xmlns="http://www.w3.org/2000/svg"
 width="60.000000pt" height="115.000000pt" viewBox="0 0 60.000000 115.000000"
 preserveAspectRatio="xMidYMid meet">

<g transform="translate(0.000000,115.000000) scale(0.100000,-0.100000)"
fill="#000000" stroke="none">
<path d="M229 1110 c-67 -19 -102 -63 -101 -131 1 -37 0 -38 -41 -41 l-42 -3
-3 -54 c-2 -30 -10 -60 -18 -68 -19 -20 -18 -39 6 -63 11 -11 20 -29 20 -40 0
-37 34 -57 125 -74 48 -8 91 -13 96 -10 5 3 9 -4 9 -15 0 -28 21 -26 49 3 12
13 42 29 67 35 43 11 64 33 64 68 0 10 9 24 20 31 22 13 27 51 9 69 -8 8 2 33
38 95 63 106 64 112 47 137 -29 41 -60 27 -101 -44 -32 -55 -42 -65 -66 -65
-24 0 -27 3 -21 24 8 33 -11 88 -40 115 -28 27 -81 40 -117 31z m93 -40 c55
-43 61 -122 10 -141 -35 -13 -119 -13 -154 0 -25 9 -28 16 -28 57 0 37 5 51
29 75 37 36 104 41 143 9z m241 -32 c5 -16 1 -24 -86 -173 -93 -160 -136 -224
-160 -236 -17 -10 -18 -8 -12 23 6 32 46 106 162 306 38 64 60 92 73 92 10 0
20 -6 23 -12z m-378 -131 l60 -13 3 -122 3 -122 -28 1 c-15 0 -53 6 -83 12
-45 10 -56 17 -64 38 -7 21 -5 30 13 48 11 11 21 27 21 35 0 16 -26 46 -41 46
-5 0 -9 20 -9 45 0 44 1 45 33 45 17 -1 59 -6 92 -13z m214 -24 c-42 -70 -109
-204 -109 -218 0 -8 -4 -15 -10 -15 -6 0 -10 48 -10 124 l0 124 58 10 c100 17
97 18 71 -25z m-315 -89 c8 -21 -1 -34 -24 -34 -10 0 -21 4 -24 9 -10 16 5 41
24 41 10 0 21 -7 24 -16z m394 -11 c-2 -10 -11 -19 -21 -21 -16 -3 -17 -1 -5
17 16 25 31 27 26 4z m-48 -97 c-6 -8 -20 -16 -30 -19 -22 -6 -21 -2 14 48 20
29 21 29 24 7 2 -13 -1 -29 -8 -36z"/>
<path d="M486 954 c-21 -36 -35 -68 -31 -72 3 -4 11 0 16 8 53 87 68 119 61
124 -5 3 -26 -24 -46 -60z"/>
</g>
</svg>
