<svg xmlns="http://www.w3.org/2000/svg" width="24" height="26.184" viewBox="0 0 240 261.844">
  <defs>
    <style>
      .cls-1 {
        fill: #00e4ff;
        fill-rule: evenodd;
      }
    </style>
  </defs>
  <path class="cls-1" d="M242.862,259.717a22.693,22.693,0,0,1-31.748-2.278l-74.083-84.111a22.074,22.074,0,0,1-4.688-20.854A82.765,82.765,0,0,1,26.478,137.09,80.251,80.251,0,0,1,34.126,22.952C68.071-6.219,119.869-2.508,149.6,31.231a80.384,80.384,0,0,1,.941,105.536,22.733,22.733,0,0,1,20.338,7.456l74.107,84.117A22.046,22.046,0,0,1,242.862,259.717ZM144.947,88.241A55.877,55.877,0,0,0,130.96,47.275c-20.714-23.535-56.842-26.134-80.528-5.8a55.992,55.992,0,0,0-5.341,79.582c20.717,23.535,56.84,26.136,80.523,5.79A55.422,55.422,0,0,0,144.947,88.241Z" transform="translate(-8.39 -3.281)"/>
</svg>
